# xmcd
#
# Track frame offsets: 
#        150
#        22610
#        41235
#        60060
#        76295
#        100595
#        116285
#        133047
#        144747
#        156785
#        177148
#        197623
#        217988
#        234038
#        258526
#        275103
#
# Disc length: 3875 seconds
#
# Revision: 0
# Processed by: cddbd v1.5.2PL0 Copyright (c) Steve Scherf et al.
# Submitted via: ExactAudioCopy v0.99pb4
#
DISCID=ca0f2110
DTITLE=Rory Block - Lovin Whiskey
DYEAR=1900
DGENRE=Blues
TTITLE0=01 Silver Wings - 01 Silver Wings
TTITLE1=02 Do You Love Me - 02 Do You Love Me
TTITLE2=03 Lovin' Whiskey - 03 Lovin' Whiskey
TTITLE3=04 It Aint Right - 04 It Aint Right
TTITLE4=05 Gypsie Boy - 05 Gypsie Boy
TTITLE5=06 Misty Glen - 06 Misty Glen
TTITLE6=07 The Water Is Wide - 07 The Water Is Wide
TTITLE7=08 Catastrophe Rag - 08 Catastrophe Rag
TTITLE8=09 God's Gift To Women - 09 God's Gift To Women
TTITLE9=10 Somebody's Baby - 10 Somebody's Baby
TTITLE10=11 Angel Of Mercy - 11 Angel Of Mercy
TTITLE11=12 I'll Be Gone - 12 I'll Be Gone
TTITLE12=13 Lovin Fool - 13 Lovin Fool
TTITLE13=14 Love Without The Heart - 14 Love Without The Heart
TTITLE14=15 You Deserve The Best - 15 You Deserve The Best
TTITLE15=16 Lovin' Whiskey (Live - 16 Lovin' Whiskey (Live)
EXTD=
EXTT0=
EXTT1=
EXTT2=
EXTT3=
EXTT4=
EXTT5=
EXTT6=
EXTT7=
EXTT8=
EXTT9=
EXTT10=
EXTT11=
EXTT12=
EXTT13=
EXTT14=
EXTT15=
PLAYORDER=
